<svg width="40" height="40" viewBox="0 0 40 40" fill="none" xmlns="http://www.w3.org/2000/svg">
<path d="M29.1668 10.833H29.1835M11.6668 3.33301H28.3335C32.9359 3.33301 36.6668 7.06397 36.6668 11.6663V28.333C36.6668 32.9354 32.9359 36.6663 28.3335 36.6663H11.6668C7.06446 36.6663 3.3335 32.9354 3.3335 28.333V11.6663C3.3335 7.06397 7.06446 3.33301 11.6668 3.33301ZM26.6668 18.9497C26.8725 20.3368 26.6356 21.7534 25.9898 22.998C25.3439 24.2427 24.3221 25.252 23.0695 25.8825C21.817 26.5129 20.3976 26.7323 19.0131 26.5096C17.6287 26.2868 16.3498 25.6331 15.3582 24.6416C14.3667 23.6501 13.713 22.3711 13.4903 20.9867C13.2675 19.6023 13.4869 18.1828 14.1174 16.9303C14.7478 15.6778 15.7571 14.6559 17.0018 14.0101C18.2465 13.3642 19.6631 13.1273 21.0502 13.333C22.465 13.5428 23.7749 14.2021 24.7863 15.2135C25.7977 16.2249 26.457 17.5348 26.6668 18.9497Z" stroke="#734E30" stroke-width="2" stroke-linecap="round" stroke-linejoin="round"/>
</svg>
